<svg id="e1q71df7e07n1" xmlns="http://www.w3.org/2000/svg" xmlns:xlink="http://www.w3.org/1999/xlink" viewBox="0 0 3250 1250" shape-rendering="geometricPrecision" text-rendering="geometricPrecision"><rect id="e1q71df7e07n2" width="3250" height="1250" rx="6.220000" ry="6.220000" transform="matrix(1 0 0 1 -0.00000000000182 3.99999999991473)" fill="rgb(255,255,255)" stroke="none" stroke-width="1"/><g id="e1q71df7e07n3" transform="matrix(1 0 0 0.99776300000000 0 0.29243100000000)" clip-rule="evenodd"><path id="e1q71df7e07n4" d="M506.835380,130.539570C556.423380,139.732570,652.287000,158.325000,724.689000,179.768000C810.755000,205.257000,939.730000,245.087000,1019.920000,283.683000C1087.660000,316.284000,1151.630000,359.255000,1205.830000,411.342000C1265.030000,468.228000,1334.970000,549.866000,1375.100000,625C1414.370000,698.527000,1479.690000,748.619000,1546.540000,792.277000C1620.360000,840.483000,1723.280000,885.030000,1817.990000,914.238000C1912.700000,943.446000,2014.980000,955.698000,2114.790000,967.527000C2218.030000,979.760000,2336.490000,984.286000,2437.370000,987.638000C2531.560000,990.767000,2720.100000,987.638000,2720.100000,987.638000" transform="matrix(1 0 0 1 0 4.00896806155379)" clip-rule="evenodd" fill="none" fill-rule="evenodd" stroke="rgb(0,0,0)" stroke-width="19.080000" stroke-linecap="round" stroke-linejoin="round" stroke-miterlimit="1.500000"/></g><g id="e1q71df7e07n5" transform="matrix(0.98823900000000 0 0 1 5.92193000000000 -12)" clip-rule="evenodd"><path id="e1q71df7e07n6" d="M503.524000,625L2746.480000,625" transform="matrix(1 0 0 1 0 4)" clip-rule="evenodd" fill="none" fill-rule="evenodd" stroke="rgb(139,139,139)" stroke-width="19.170000" stroke-linecap="round" stroke-linejoin="round" stroke-miterlimit="1.500000" stroke-dasharray="19.170000,84.820000,0,0"/></g><path id="e1q71df7e07n7" d="M506.214500,72.790000C506.214500,72.790000,624.376000,63.130000,664.167000,72.790000C695.673000,80.438000,711.191000,121.530000,742.273000,130.747000C774.848000,140.407000,829.603000,118.002000,859.614000,130.747000C889.625000,143.493000,891.567000,207.219000,922.340000,207.219000C953.113000,207.219000,1011.680000,116.833000,1044.250000,130.747000C1076.830000,144.661000,1084.860000,256.071000,1117.790000,290.703000C1148.320000,322.819000,1221.160000,318.082000,1241.830000,338.541000C1259.580000,356.107000,1261.744200,391.039860,1272.874200,403.525860C1284.004200,416.012860,1320.245700,403.070770,1331.375700,414.701770C1342.505700,426.332770,1342.531500,470.126680,1354.141500,490.282680C1366.261500,511.330680,1390.764000,515.292160,1402.884000,538.918160C1415.014000,562.544160,1430.928500,605.299490,1441.648500,626.572490C1452.368500,647.845490,1466.344700,688.700370,1489.644700,677.894370C1513.384700,666.882370,1515.187500,547.971750,1535.507500,560.098750C1555.827500,572.225750,1559.780000,683.781000,1567.610000,740.144000" transform="matrix(1 0 0 1 0 4)" clip-rule="evenodd" fill="none" fill-rule="evenodd" stroke="rgb(210,191,62)" stroke-width="19.050000" stroke-linecap="round" stroke-linejoin="round" stroke-miterlimit="1.500000"/><path id="e1q71df7e07n8" d="M1567.610000,740.144000C1583.030000,852.157000,1681.220000,523.800000,1719.510000,539.746000C1757.800000,555.692000,1764.150000,802.421000,1797.360000,835.821000C1830.560000,869.220000,1892.834500,814.567950,1925.774500,824.437950C1958.714500,834.307950,1962.590000,869.225000,1994.980000,895.042000C2025.780000,919.581000,2080.170000,895.042000,2113.110000,895.042000C2139.610000,895.042000,2166.780000,889.134000,2192.610000,895.042000C2225.370000,902.531000,2279.050000,939.978000,2309.640000,939.978000C2336.400000,939.978000,2357.690000,895.042000,2376.160000,895.042000C2394.640000,895.042000,2399.990000,935.233000,2420.490000,939.978000C2452.840000,947.468000,2520.330000,939.978000,2570.260000,939.978000L2720.100000,939.978000" transform="matrix(1 0 0 1 0 4)" clip-rule="evenodd" fill="none" fill-rule="evenodd" stroke="rgb(210,191,62)" stroke-width="19.050000" stroke-linecap="round" stroke-linejoin="round" stroke-miterlimit="1.500000"/><g id="e1q71df7e07n9" transform="matrix(11.82510000000000 0 0 -11.82510000000000 239.66499999999999 8328.92000000000007)" clip-rule="evenodd"><path id="e1q71df7e07n10" d="M152.490000,657.780000L152.490000,657.120000L153.950000,657.230000L153.950000,657.550000C153.260000,657.550000,153.160000,657.610000,153.160000,658.090000L153.160000,664.120000L151.740000,664.020000L151.740000,663.720000C152.430000,663.720000,152.510000,663.640000,152.510000,663.160000L152.510000,661.020000C152.230000,661.360000,151.800000,661.620000,151.260000,661.620000L151.300000,661.410000C151.650000,661.410000,152.070000,661.250000,152.380000,660.810000C152.490000,660.640000,152.490000,660.620000,152.490000,660.440000L152.490000,660.440000L152.490000,658.410000C152.490000,658.230000,152.490000,658.200000,152.380000,658.030000C152.090000,657.560000,151.630000,657.340000,151.210000,657.340000C150.760000,657.340000,150.400000,657.610000,150.160000,657.980000C149.900000,658.390000,149.870000,658.950000,149.870000,659.360000C149.870000,659.730000,149.900000,660.330000,150.180000,660.770000C150.380000,661.080000,150.770000,661.410000,151.300000,661.410000L151.260000,661.620000C150.090000,661.620000,149.050000,660.660000,149.050000,659.380000C149.050000,658.110000,150.020000,657.120000,151.150000,657.120000C151.790000,657.120000,152.240000,657.470000,152.490000,657.780000Z" transform="matrix(1 0 0 1 0 -0.33826352419874)" clip-rule="evenodd" fill="rgb(139,139,139)" fill-rule="evenodd" stroke="rgb(0,0,0)" stroke-width="0" stroke-miterlimit="10.433000"/><path id="e1q71df7e07n11" d="M155.350000,659.530000L155.350000,659.730000C155.420000,661.220000,156.250000,661.470000,156.590000,661.470000C157.620000,661.470000,157.710000,660.120000,157.710000,659.730000L155.350000,659.730000L155.350000,659.530000L158.120000,659.530000C158.340000,659.530000,158.370000,659.530000,158.370000,659.730000C158.370000,660.720000,157.840000,661.690000,156.590000,661.690000C155.430000,661.690000,154.530000,660.660000,154.530000,659.420000C154.530000,658.090000,155.570000,657.120000,156.710000,657.120000C157.920000,657.120000,158.370000,658.230000,158.370000,658.420000C158.370000,658.520000,158.290000,658.530000,158.250000,658.530000C158.150000,658.530000,158.140000,658.470000,158.100000,658.390000C157.760000,657.380000,156.870000,657.380000,156.760000,657.380000C156.280000,657.380000,155.870000,657.670000,155.650000,658.030000C155.350000,658.520000,155.350000,659.170000,155.350000,659.530000Z" transform="matrix(1 0 0 1 0 -0.33826352419874)" clip-rule="evenodd" fill="rgb(139,139,139)" fill-rule="evenodd" stroke="rgb(0,0,0)" stroke-width="0" stroke-miterlimit="10.433000"/><path id="e1q71df7e07n12" d="M160.730000,659.160000L160.760000,659.150000L160.780000,659.150000L160.810000,659.140000L160.840000,659.140000L160.870000,659.130000L160.910000,659.120000L160.950000,659.110000L160.990000,659.100000L161.030000,659.090000L161.070000,659.080000L161.110000,659.060000L161.160000,659.050000L161.200000,659.030000L161.240000,659.010000L161.290000,658.980000L161.330000,658.960000L161.380000,658.940000L161.420000,658.910000L161.460000,658.880000L161.500000,658.840000L161.530000,658.810000L161.570000,658.770000L161.600000,658.730000L161.640000,658.690000L161.660000,658.650000L161.680000,658.620000L161.690000,658.600000L161.700000,658.570000L161.710000,658.550000L161.720000,658.520000L161.730000,658.490000L161.740000,658.470000L161.750000,658.440000L161.750000,658.410000L161.760000,658.380000L161.760000,658.350000L161.760000,658.320000L161.770000,658.280000L161.770000,658.250000C161.770000,657.730000,161.420000,657.340000,160.660000,657.340000C159.810000,657.340000,159.450000,657.910000,159.270000,658.750000C159.230000,658.890000,159.230000,658.920000,159.120000,658.920000C159,658.920000,159,658.860000,159,658.670000L159,657.360000C159,657.190000,159,657.120000,159.110000,657.120000C159.160000,657.120000,159.170000,657.140000,159.360000,657.330000C159.380000,657.340000,159.380000,657.360000,159.560000,657.550000C160,657.140000,160.440000,657.120000,160.660000,657.120000C161.800000,657.120000,162.250000,657.800000,162.250000,658.500000C162.250000,659.030000,161.950000,659.330000,161.830000,659.450000C161.500000,659.770000,161.110000,659.840000,160.700000,659.920000C160.140000,660.030000,159.470000,660.170000,159.470000,660.730000C159.470000,661.090000,159.730000,661.500000,160.590000,661.500000C161.690000,661.500000,161.730000,660.610000,161.750000,660.300000C161.770000,660.200000,161.840000,660.200000,161.880000,660.200000C162,660.200000,162,660.250000,162,660.440000L162,661.450000C162,661.610000,162,661.690000,161.890000,661.690000C161.840000,661.690000,161.830000,661.690000,161.690000,661.560000C161.660000,661.530000,161.560000,661.440000,161.520000,661.410000C161.140000,661.690000,160.730000,661.690000,160.590000,661.690000C159.380000,661.690000,159,661.020000,159,660.470000C159,660.110000,159.160000,659.840000,159.420000,659.620000C159.750000,659.360000,160.020000,659.300000,160.730000,659.160000Z" transform="matrix(1 0 0 1 0 -0.33826352419874)" clip-rule="evenodd" fill="rgb(139,139,139)" fill-rule="evenodd" stroke="rgb(0,0,0)" stroke-width="0" stroke-miterlimit="10.433000"/><path id="e1q71df7e07n13" d="M164.360000,661.620000L162.970000,661.520000L162.970000,661.200000C163.610000,661.200000,163.710000,661.140000,163.710000,660.660000L163.710000,657.980000C163.710000,657.550000,163.600000,657.550000,162.930000,657.550000L162.930000,657.230000C163.240000,657.250000,163.790000,657.270000,164.020000,657.270000C164.360000,657.270000,164.710000,657.250000,165.050000,657.230000L165.050000,657.550000C164.400000,657.550000,164.360000,657.590000,164.360000,657.980000Z" transform="matrix(1 0 0 1 0 -0.33826352419874)" clip-rule="evenodd" fill="rgb(139,139,139)" fill-rule="evenodd" stroke="rgb(0,0,0)" stroke-width="0" stroke-miterlimit="10.433000"/><path id="e1q71df7e07n14" d="M164.400000,663.360000L164.390000,663.390000L164.390000,663.420000L164.390000,663.440000L164.380000,663.470000L164.380000,663.500000L164.370000,663.520000L164.360000,663.550000L164.350000,663.570000L164.340000,663.590000L164.330000,663.620000L164.320000,663.640000L164.300000,663.660000L164.290000,663.680000L164.270000,663.700000L164.250000,663.720000L164.230000,663.730000L164.220000,663.750000L164.200000,663.770000L164.180000,663.780000L164.160000,663.790000L164.130000,663.810000L164.110000,663.820000L164.090000,663.830000L164.070000,663.840000L164.040000,663.850000L164.020000,663.850000L163.990000,663.860000L163.970000,663.870000L163.940000,663.870000L163.920000,663.870000L163.890000,663.870000L163.860000,663.880000C163.570000,663.880000,163.350000,663.610000,163.350000,663.360000C163.350000,663.080000,163.570000,662.830000,163.860000,662.830000C164.150000,662.830000,164.400000,663.030000,164.400000,663.360000Z" transform="matrix(1 0 0 1 0 -0.33826352419874)" clip-rule="evenodd" fill="rgb(139,139,139)" fill-rule="evenodd" stroke="rgb(0,0,0)" stroke-width="0" stroke-miterlimit="10.433000"/><path id="e1q71df7e07n15" d="M167.020000,660.530000L167.020000,661.620000L165.650000,661.520000L165.650000,661.200000C166.330000,661.200000,166.410000,661.140000,166.410000,660.660000L166.410000,657.980000C166.410000,657.550000,166.300000,657.550000,165.650000,657.550000L165.650000,657.230000C166.040000,657.250000,166.490000,657.270000,166.770000,657.270000C167.180000,657.270000,167.650000,657.270000,168.040000,657.230000L168.040000,657.550000L167.830000,657.550000C167.100000,657.550000,167.070000,657.660000,167.070000,658.020000L167.070000,659.530000C167.070000,660.520000,167.490000,661.410000,168.240000,661.410000C168.320000,661.410000,168.330000,661.410000,168.350000,661.390000C168.320000,661.390000,168.130000,661.270000,168.130000,661.020000C168.130000,660.730000,168.330000,660.580000,168.550000,660.580000C168.740000,660.580000,168.970000,660.700000,168.970000,661.020000C168.970000,661.340000,168.680000,661.620000,168.240000,661.620000C167.520000,661.620000,167.160000,660.950000,167.020000,660.530000Z" transform="matrix(1 0 0 1 0 -0.33826352419874)" clip-rule="evenodd" fill="rgb(139,139,139)" fill-rule="evenodd" stroke="rgb(0,0,0)" stroke-width="0" stroke-miterlimit="10.433000"/><path id="e1q71df7e07n16" d="M170.380000,659.530000L170.380000,659.730000C170.440000,661.220000,171.270000,661.470000,171.610000,661.470000C172.640000,661.470000,172.730000,660.120000,172.730000,659.730000L170.380000,659.730000L170.380000,659.530000L173.140000,659.530000C173.360000,659.530000,173.390000,659.530000,173.390000,659.730000C173.390000,660.720000,172.860000,661.690000,171.610000,661.690000C170.450000,661.690000,169.550000,660.660000,169.550000,659.420000C169.550000,658.090000,170.590000,657.120000,171.730000,657.120000C172.940000,657.120000,173.390000,658.230000,173.390000,658.420000C173.390000,658.520000,173.310000,658.530000,173.270000,658.530000C173.170000,658.530000,173.160000,658.470000,173.120000,658.390000C172.780000,657.380000,171.890000,657.380000,171.780000,657.380000C171.300000,657.380000,170.890000,657.670000,170.670000,658.030000C170.380000,658.520000,170.380000,659.170000,170.380000,659.530000Z" transform="matrix(1 0 0 1 0 -0.33826352419874)" clip-rule="evenodd" fill="rgb(139,139,139)" fill-rule="evenodd" stroke="rgb(0,0,0)" stroke-width="0" stroke-miterlimit="10.433000"/><path id="e1q71df7e07n17" d="M177.470000,657.780000L177.470000,657.120000L178.930000,657.230000L178.930000,657.550000C178.240000,657.550000,178.150000,657.610000,178.150000,658.090000L178.150000,664.120000L176.720000,664.020000L176.720000,663.720000C177.410000,663.720000,177.490000,663.640000,177.490000,663.160000L177.490000,661.020000C177.210000,661.360000,176.790000,661.620000,176.240000,661.620000L176.290000,661.410000C176.630000,661.410000,177.050000,661.250000,177.360000,660.810000C177.470000,660.640000,177.470000,660.620000,177.470000,660.440000L177.470000,660.440000L177.470000,658.410000C177.470000,658.230000,177.470000,658.200000,177.360000,658.030000C177.070000,657.560000,176.610000,657.340000,176.190000,657.340000C175.740000,657.340000,175.380000,657.610000,175.150000,657.980000C174.880000,658.390000,174.850000,658.950000,174.850000,659.360000C174.850000,659.730000,174.880000,660.330000,175.160000,660.770000C175.360000,661.080000,175.750000,661.410000,176.290000,661.410000L176.240000,661.620000C175.070000,661.620000,174.040000,660.660000,174.040000,659.380000C174.040000,658.110000,175,657.120000,176.130000,657.120000C176.770000,657.120000,177.220000,657.470000,177.470000,657.780000Z" transform="matrix(1 0 0 1 0 -0.33826352419874)" clip-rule="evenodd" fill="rgb(139,139,139)" fill-rule="evenodd" stroke="rgb(0,0,0)" stroke-width="0" stroke-miterlimit="10.433000"/><path id="e1q71df7e07n18" d="M184.200000,660.530000L184.200000,661.620000L182.830000,661.520000L182.830000,661.200000C183.520000,661.200000,183.590000,661.140000,183.590000,660.660000L183.590000,657.980000C183.590000,657.550000,183.480000,657.550000,182.830000,657.550000L182.830000,657.230000C183.220000,657.250000,183.670000,657.270000,183.950000,657.270000C184.360000,657.270000,184.830000,657.270000,185.220000,657.230000L185.220000,657.550000L185.020000,657.550000C184.280000,657.550000,184.250000,657.660000,184.250000,658.020000L184.250000,659.530000C184.250000,660.520000,184.670000,661.410000,185.420000,661.410000C185.500000,661.410000,185.520000,661.410000,185.530000,661.390000C185.500000,661.390000,185.310000,661.270000,185.310000,661.020000C185.310000,660.730000,185.520000,660.580000,185.730000,660.580000C185.920000,660.580000,186.160000,660.700000,186.160000,661.020000C186.160000,661.340000,185.860000,661.620000,185.420000,661.620000C184.700000,661.620000,184.340000,660.950000,184.200000,660.530000Z" transform="matrix(1 0 0 1 0 -0.33826352419874)" clip-rule="evenodd" fill="rgb(139,139,139)" fill-rule="evenodd" stroke="rgb(0,0,0)" stroke-width="0" stroke-miterlimit="10.433000"/><path id="e1q71df7e07n19" d="M188.210000,661.620000L186.820000,661.520000L186.820000,661.200000C187.460000,661.200000,187.560000,661.140000,187.560000,660.660000L187.560000,657.980000C187.560000,657.550000,187.450000,657.550000,186.780000,657.550000L186.780000,657.230000C187.090000,657.250000,187.640000,657.270000,187.870000,657.270000C188.210000,657.270000,188.560000,657.250000,188.900000,657.230000L188.900000,657.550000C188.250000,657.550000,188.210000,657.590000,188.210000,657.980000Z" transform="matrix(1 0 0 1 0 -0.33826352419874)" clip-rule="evenodd" fill="rgb(139,139,139)" fill-rule="evenodd" stroke="rgb(0,0,0)" stroke-width="0" stroke-miterlimit="10.433000"/><path id="e1q71df7e07n20" d="M188.250000,663.360000L188.250000,663.390000L188.240000,663.420000L188.240000,663.440000L188.230000,663.470000L188.230000,663.500000L188.220000,663.520000L188.210000,663.550000L188.200000,663.570000L188.190000,663.590000L188.180000,663.620000L188.170000,663.640000L188.150000,663.660000L188.140000,663.680000L188.120000,663.700000L188.100000,663.720000L188.090000,663.730000L188.070000,663.750000L188.050000,663.770000L188.030000,663.780000L188.010000,663.790000L187.980000,663.810000L187.960000,663.820000L187.940000,663.830000L187.920000,663.840000L187.890000,663.850000L187.870000,663.850000L187.840000,663.860000L187.820000,663.870000L187.790000,663.870000L187.770000,663.870000L187.740000,663.870000L187.710000,663.880000C187.420000,663.880000,187.200000,663.610000,187.200000,663.360000C187.200000,663.080000,187.420000,662.830000,187.710000,662.830000C188,662.830000,188.250000,663.030000,188.250000,663.360000Z" transform="matrix(1 0 0 1 0 -0.33826352419874)" clip-rule="evenodd" fill="rgb(139,139,139)" fill-rule="evenodd" stroke="rgb(0,0,0)" stroke-width="0" stroke-miterlimit="10.433000"/><path id="e1q71df7e07n21" d="M191.280000,659.160000L191.300000,659.150000L191.320000,659.150000L191.350000,659.140000L191.380000,659.140000L191.420000,659.130000L191.450000,659.120000L191.490000,659.110000L191.530000,659.100000L191.570000,659.090000L191.610000,659.080000L191.660000,659.060000L191.700000,659.050000L191.740000,659.030000L191.790000,659.010000L191.830000,658.980000L191.880000,658.960000L191.920000,658.940000L191.960000,658.910000L192,658.880000L192.040000,658.840000L192.080000,658.810000L192.110000,658.770000L192.150000,658.730000L192.180000,658.690000L192.210000,658.650000L192.220000,658.620000L192.230000,658.600000L192.240000,658.570000L192.250000,658.550000L192.260000,658.520000L192.270000,658.490000L192.280000,658.470000L192.290000,658.440000L192.290000,658.410000L192.300000,658.380000L192.300000,658.350000L192.310000,658.320000L192.310000,658.280000L192.310000,658.250000C192.310000,657.730000,191.960000,657.340000,191.200000,657.340000C190.350000,657.340000,190,657.910000,189.810000,658.750000C189.780000,658.890000,189.780000,658.920000,189.670000,658.920000C189.540000,658.920000,189.540000,658.860000,189.540000,658.670000L189.540000,657.360000C189.540000,657.190000,189.540000,657.120000,189.650000,657.120000C189.700000,657.120000,189.710000,657.140000,189.900000,657.330000C189.920000,657.340000,189.920000,657.360000,190.100000,657.550000C190.540000,657.140000,190.980000,657.120000,191.200000,657.120000C192.340000,657.120000,192.790000,657.800000,192.790000,658.500000C192.790000,659.030000,192.500000,659.330000,192.370000,659.450000C192.040000,659.770000,191.650000,659.840000,191.250000,659.920000C190.680000,660.030000,190.010000,660.170000,190.010000,660.730000C190.010000,661.090000,190.280000,661.500000,191.140000,661.500000C192.230000,661.500000,192.280000,660.610000,192.290000,660.300000C192.310000,660.200000,192.390000,660.200000,192.420000,660.200000C192.540000,660.200000,192.540000,660.250000,192.540000,660.440000L192.540000,661.450000C192.540000,661.610000,192.540000,661.690000,192.430000,661.690000C192.390000,661.690000,192.370000,661.690000,192.230000,661.560000C192.200000,661.530000,192.100000,661.440000,192.060000,661.410000C191.680000,661.690000,191.280000,661.690000,191.140000,661.690000C189.920000,661.690000,189.540000,661.020000,189.540000,660.470000C189.540000,660.110000,189.700000,659.840000,189.960000,659.620000C190.290000,659.360000,190.560000,659.300000,191.280000,659.160000Z" transform="matrix(1 0 0 1 0 -0.33826352419874)" clip-rule="evenodd" fill="rgb(139,139,139)" fill-rule="evenodd" stroke="rgb(0,0,0)" stroke-width="0" stroke-miterlimit="10.433000"/><path id="e1q71df7e07n22" d="M194.190000,657.980000L194.190000,657.940000L194.190000,657.910000L194.180000,657.870000L194.180000,657.840000L194.180000,657.810000L194.170000,657.780000L194.170000,657.760000L194.160000,657.730000L194.150000,657.710000L194.140000,657.690000L194.130000,657.670000L194.120000,657.650000L194.100000,657.640000L194.090000,657.620000L194.070000,657.610000L194.050000,657.600000L194.030000,657.590000L194.010000,657.580000L193.980000,657.580000L193.950000,657.570000L193.920000,657.560000L193.890000,657.560000L193.860000,657.560000L193.820000,657.550000L193.800000,657.550000L193.780000,657.550000L193.760000,657.550000L193.740000,657.550000L193.710000,657.550000L193.690000,657.550000L193.670000,657.550000L193.640000,657.550000L193.620000,657.550000L193.590000,657.550000L193.570000,657.550000L193.540000,657.550000L193.510000,657.550000L193.480000,657.550000L193.450000,657.550000L193.420000,657.550000L193.420000,657.230000C193.750000,657.250000,194.220000,657.270000,194.500000,657.270000C194.800000,657.270000,195.200000,657.250000,195.590000,657.230000L195.590000,657.550000C194.920000,657.550000,194.810000,657.550000,194.810000,657.980000L194.810000,659.020000L195.450000,659.560000C196.220000,658.500000,196.640000,657.950000,196.640000,657.770000C196.640000,657.580000,196.470000,657.550000,196.280000,657.550000L196.280000,657.230000C196.560000,657.250000,197.140000,657.270000,197.360000,657.270000C197.640000,657.270000,197.920000,657.250000,198.220000,657.230000L198.220000,657.550000C197.840000,657.550000,197.620000,657.550000,197.250000,658.060000L195.980000,659.840000C195.980000,659.860000,195.940000,659.920000,195.940000,659.950000C195.940000,660,196.640000,660.590000,196.730000,660.670000C197.360000,661.170000,197.780000,661.200000,197.980000,661.200000L197.980000,661.520000C197.700000,661.480000,197.580000,661.480000,197.300000,661.480000C196.940000,661.480000,196.310000,661.500000,196.190000,661.520000L196.190000,661.200000C196.380000,661.200000,196.470000,661.090000,196.470000,660.950000C196.470000,660.770000,196.330000,660.640000,196.250000,660.580000L194.840000,659.360000L194.840000,664.120000L193.420000,664.020000L193.420000,663.720000C194.110000,663.720000,194.190000,663.640000,194.190000,663.160000Z" transform="matrix(1 0 0 1 0 -0.33826352419874)" clip-rule="evenodd" fill="rgb(139,139,139)" fill-rule="evenodd" stroke="rgb(0,0,0)" stroke-width="0" stroke-miterlimit="10.433000"/><path id="e1q71df7e07n23" d="M202.140000,659.750000L202.160000,659.800000L202.180000,659.860000L202.200000,659.910000L202.220000,659.950000L202.240000,660L202.270000,660.050000L202.290000,660.090000L202.320000,660.130000L202.340000,660.170000L202.370000,660.210000L202.390000,660.250000L202.420000,660.290000L202.450000,660.320000L202.480000,660.350000L202.540000,660.420000L202.600000,660.480000L202.660000,660.530000L202.720000,660.580000L202.780000,660.620000L202.850000,660.660000L202.910000,660.700000L202.970000,660.730000L203.030000,660.760000L203.100000,660.790000L203.160000,660.810000L203.220000,660.830000L203.270000,660.850000L203.330000,660.860000L203.380000,660.870000L203.430000,660.880000L203.480000,660.890000L203.530000,660.890000L203.570000,660.900000L203.600000,660.900000L203.640000,660.900000L203.660000,660.910000L203.690000,660.910000L203.710000,660.910000L203.720000,660.910000C205.220000,660.910000,205.330000,659.170000,205.330000,658.390000C205.330000,657.780000,205.280000,657.610000,205.220000,657.410000C205,656.690000,204.690000,655.530000,204.690000,655.280000C204.690000,655.170000,204.750000,655.090000,204.830000,655.090000C204.950000,655.090000,205.030000,655.310000,205.140000,655.690000C205.380000,656.530000,205.470000,657.090000,205.520000,657.410000C205.530000,657.530000,205.550000,657.660000,205.590000,657.800000C205.910000,658.780000,206.550000,660.250000,206.940000,661.030000C207.020000,661.160000,207.120000,661.380000,207.120000,661.420000C207.120000,661.520000,207.030000,661.520000,207.020000,661.520000C206.980000,661.520000,206.920000,661.520000,206.890000,661.450000C206.380000,660.500000,205.970000,659.520000,205.580000,658.500000C205.560000,658.810000,205.560000,659.560000,205.170000,660.530000C204.940000,661.140000,204.530000,661.620000,203.840000,661.620000C202.610000,661.620000,201.910000,660.110000,201.910000,659.810000C201.910000,659.700000,202,659.700000,202.110000,659.700000Z" transform="matrix(1 0 0 1 0 -0.33826352419874)" clip-rule="evenodd" fill="rgb(139,139,139)" fill-rule="evenodd" stroke="rgb(0,0,0)" stroke-width="0" stroke-miterlimit="10.433000"/></g><g id="e1q71df7e07n24" transform="matrix(14.02530000000000 0 0 -14.02530000000000 -373.69499999999999 10258.89999999999964)" clip-rule="evenodd"><g id="e1q71df7e07n25"><polygon id="e1q71df7e07n26" points="151.610000,666.240000 152.750000,665.220000 152.930000,665.410000 151.610000,666.750000 150.290000,665.410000 150.460000,665.220000" transform="matrix(1 0 0 1 0 -0.28519889057634)" clip-rule="evenodd" fill="rgb(126,147,244)" fill-rule="evenodd" stroke="rgb(0,0,0)" stroke-width="0" stroke-miterlimit="10.433000"/><path id="e1q71df7e07n27" d="M152.260000,660.140000L152.300000,660.040000L152.330000,659.940000L152.410000,659.730000L152.490000,659.510000L152.570000,659.300000L152.650000,659.080000L152.730000,658.860000L152.800000,658.640000L152.840000,658.540000L152.870000,658.440000L152.910000,658.340000L152.950000,658.240000L152.980000,658.150000L153.010000,658.060000L153.040000,657.970000L153.070000,657.890000L153.100000,657.810000L153.130000,657.730000L153.160000,657.660000L153.180000,657.600000L153.210000,657.540000L153.230000,657.490000L153.250000,657.440000L153.270000,657.400000L153.290000,657.370000L153.300000,657.340000C153.460000,657.120000,153.550000,657.120000,153.820000,657.120000L154.040000,657.120000C154.150000,657.140000,154.150000,657.190000,154.150000,657.220000C154.150000,657.250000,154.130000,657.280000,154.100000,657.310000C154.010000,657.420000,153.950000,657.580000,153.880000,657.770000L151.850000,663.420000C151.650000,664,151.100000,664.120000,150.630000,664.120000C150.590000,664.120000,150.460000,664.120000,150.460000,664.020000C150.460000,663.940000,150.540000,663.920000,150.550000,663.920000C150.880000,663.860000,150.950000,663.800000,151.200000,663.120000L152.160000,660.420000L149.410000,657.700000C149.300000,657.580000,149.240000,657.520000,149.240000,657.390000C149.240000,657.220000,149.380000,657.110000,149.540000,657.110000C149.700000,657.110000,149.790000,657.220000,149.870000,657.310000Z" transform="matrix(1 0 0 1 0 -0.28519889057634)" clip-rule="evenodd" fill="rgb(126,147,244)" fill-rule="evenodd" stroke="rgb(0,0,0)" stroke-width="0" stroke-miterlimit="10.433000"/></g></g><g id="e1q71df7e07n28" transform="matrix(14.02530000000000 0 0 -14.02530000000000 -512.98800000000006 10429.89999999999964)" clip-rule="evenodd"><path id="e1q71df7e07n29" d="M152.260000,660.140000L152.300000,660.040000L152.330000,659.940000L152.410000,659.730000L152.490000,659.510000L152.570000,659.300000L152.650000,659.080000L152.730000,658.860000L152.800000,658.640000L152.840000,658.540000L152.870000,658.440000L152.910000,658.340000L152.950000,658.240000L152.980000,658.150000L153.010000,658.060000L153.040000,657.970000L153.070000,657.890000L153.100000,657.810000L153.130000,657.730000L153.160000,657.660000L153.180000,657.600000L153.210000,657.540000L153.230000,657.490000L153.250000,657.440000L153.270000,657.400000L153.290000,657.370000L153.300000,657.340000C153.460000,657.120000,153.550000,657.120000,153.820000,657.120000L154.040000,657.120000C154.150000,657.140000,154.150000,657.190000,154.150000,657.220000C154.150000,657.250000,154.130000,657.280000,154.100000,657.310000C154.010000,657.420000,153.950000,657.580000,153.880000,657.770000L151.850000,663.420000C151.650000,664,151.100000,664.120000,150.630000,664.120000C150.590000,664.120000,150.460000,664.120000,150.460000,664.020000C150.460000,663.940000,150.540000,663.920000,150.550000,663.920000C150.880000,663.860000,150.950000,663.800000,151.200000,663.120000L152.160000,660.420000L149.410000,657.700000C149.300000,657.580000,149.240000,657.520000,149.240000,657.390000C149.240000,657.220000,149.380000,657.110000,149.540000,657.110000C149.700000,657.110000,149.790000,657.220000,149.870000,657.310000Z" transform="matrix(1 0 0 1 0 -0.28519889057634)" clip-rule="evenodd" fill="rgb(0,0,0)" fill-rule="evenodd" stroke="rgb(0,0,0)" stroke-width="0" stroke-miterlimit="10.433000"/></g><g id="e1q71df7e07n30" transform="matrix(14.02530000000000 0 0 -14.02530000000000 -1776.09999999999991 9832.62000000000080)" clip-rule="evenodd"><polygon id="e1q71df7e07n31" points="154.670000,665.300000 153.350000,666.650000 152.030000,665.300000 152.200000,665.110000 153.350000,666.130000 154.500000,665.110000" transform="matrix(1 0 0 1 0 -0.28519889057634)" clip-rule="evenodd" fill="rgb(0,0,0)" fill-rule="evenodd" stroke="rgb(0,0,0)" stroke-width="0" stroke-miterlimit="10.433000"/><path id="e1q71df7e07n32" d="M153.870000,660.610000L153.960000,660.630000L154.060000,660.660000L154.150000,660.680000L154.250000,660.710000L154.340000,660.750000L154.440000,660.780000L154.540000,660.820000L154.630000,660.860000L154.720000,660.900000L154.820000,660.950000L154.910000,661L155,661.050000L155.090000,661.100000L155.170000,661.160000L155.260000,661.220000L155.340000,661.280000L155.410000,661.340000L155.490000,661.400000L155.560000,661.470000L155.630000,661.540000L155.690000,661.610000L155.750000,661.690000L155.800000,661.760000L155.850000,661.840000L155.900000,661.920000L155.940000,662L155.970000,662.080000L156,662.170000L156.020000,662.260000L156.040000,662.350000L156.050000,662.440000L156.050000,662.530000C156.050000,663.390000,155.160000,664.020000,153.850000,664.020000L151.020000,664.020000C150.820000,664.020000,150.740000,664.020000,150.740000,663.830000C150.740000,663.720000,150.820000,663.720000,151.010000,663.720000C151.040000,663.720000,151.230000,663.720000,151.400000,663.690000C151.570000,663.670000,151.660000,663.660000,151.660000,663.530000C151.660000,663.500000,151.650000,663.470000,151.620000,663.340000L150.290000,658.020000C150.200000,657.620000,150.160000,657.550000,149.380000,657.550000C149.210000,657.550000,149.120000,657.550000,149.120000,657.340000C149.120000,657.230000,149.240000,657.230000,149.260000,657.230000C149.540000,657.230000,150.230000,657.270000,150.510000,657.270000C150.790000,657.270000,151.490000,657.230000,151.770000,657.230000C151.850000,657.230000,151.980000,657.230000,151.980000,657.440000C151.980000,657.550000,151.880000,657.550000,151.700000,657.550000C151.320000,657.550000,151.040000,657.550000,151.040000,657.720000C151.040000,657.780000,151.070000,657.830000,151.070000,657.890000L151.730000,660.520000L152.910000,660.520000L152.900000,660.730000L151.790000,660.730000L152.430000,663.330000C152.490000,663.580000,152.520000,663.670000,152.710000,663.700000C152.800000,663.720000,153.120000,663.720000,153.320000,663.720000C154.020000,663.720000,155.130000,663.720000,155.130000,662.730000C155.130000,662.390000,154.980000,661.700000,154.590000,661.310000C154.320000,661.060000,153.800000,660.730000,152.900000,660.730000L152.910000,660.520000C153.820000,660.520000,153.990000,659.970000,153.990000,659.620000C153.990000,659.470000,153.910000,659.160000,153.850000,658.940000C153.790000,658.660000,153.700000,658.280000,153.700000,658.090000C153.700000,657.020000,154.880000,657.020000,155.020000,657.020000C155.870000,657.020000,156.210000,658.020000,156.210000,658.160000C156.210000,658.280000,156.100000,658.280000,156.090000,658.280000C156.010000,658.280000,155.980000,658.200000,155.960000,658.140000C155.710000,657.410000,155.290000,657.230000,155.050000,657.230000C154.730000,657.230000,154.660000,657.450000,154.660000,657.840000C154.660000,658.140000,154.730000,658.660000,154.760000,658.970000C154.770000,659.110000,154.800000,659.300000,154.800000,659.440000C154.800000,660.200000,154.130000,660.520000,153.870000,660.610000Z" transform="matrix(1 0 0 1 0 -0.28519889057634)" clip-rule="evenodd" fill="rgb(0,0,0)" fill-rule="evenodd" stroke="rgb(0,0,0)" stroke-width="0" stroke-miterlimit="10.433000"/></g><g id="e1q71df7e07n33" transform="matrix(1.24626000000000 0 0 1.30272000000000 -551.46699999999998 -194.09600000000000)" clip-rule="evenodd"><g id="e1q71df7e07n34" transform="matrix(0.80240100000000 0 0 0.76762400000000 442.49700000000001 148.99299999999999)" clip-rule="evenodd"><path id="e1q71df7e07n35" d="M524.358000,41.667000L503.524000,0L482.691000,41.667000L524.358000,41.667000Z" transform="matrix(1 0 0 1 0 4.00000345088297)" clip-rule="evenodd" fill="rgb(0,0,0)" fill-rule="evenodd" stroke="none" stroke-width="1" stroke-linecap="round" stroke-linejoin="round" stroke-miterlimit="1.500000"/><path id="e1q71df7e07n36" d="M2704.810000,1058.660000L2746.480000,1079.490000L2704.810000,1100.330000L2704.810000,1058.660000Z" transform="matrix(1 0 0 1 0 4.00000345088301)" clip-rule="evenodd" fill="rgb(0,0,0)" fill-rule="evenodd" stroke="none" stroke-width="1" stroke-linecap="round" stroke-linejoin="round" stroke-miterlimit="1.500000"/><path id="e1q71df7e07n37" d="M503.524000,33.333000L503.524000,1079.490000L2713.140000,1079.490000" transform="matrix(1 0 0 1 0 4.00000345088301)" clip-rule="evenodd" fill="none" fill-rule="evenodd" stroke="rgb(0,0,0)" stroke-width="13.890000" stroke-linecap="round" stroke-linejoin="round" stroke-miterlimit="1.500000"/></g></g><path id="e1q71df7e07n38" d="M1748.370000,1054.193000L1748.530000,1054.159000C1768.610000,1050.143000,1780.440000,1068.388000,1776.430000,1083.675000C1774.730000,1090.167000,1770.260000,1096.232000,1762.190000,1099.690000C1757.340000,1101.771000,1750.370000,1102.326000,1745.290000,1101.056000C1734.950000,1098.472000,1727.290000,1091.173000,1725.370000,1082.645000C1724.030000,1076.642000,1725.210000,1069.740000,1730.870000,1062.949000C1732.130000,1061.427000,1733.970000,1059.999000,1736.080000,1058.844000C1736.680000,1058.165000,1737.330000,1057.574000,1737.990000,1057.057000C1740.860000,1054.840000,1744.580000,1053.905000,1748.370000,1054.193000Z" transform="matrix(1 0 0 1 -16.87025370999913 1.82546506000017)" clip-rule="evenodd" fill="rgb(126,147,244)" fill-rule="evenodd" stroke="none" stroke-width="1" stroke-linecap="round" stroke-linejoin="round" stroke-miterlimit="1.500000"/><g id="e1q71df7e07n39" transform="matrix(14.02530000000000 0 0 -14.02530000000000 -937.32500000000005 9416.72999999999956)" clip-rule="evenodd"><polygon id="e1q71df7e07n40" points="152.030000,665.300000 152.200000,665.110000 153.350000,666.130000 154.500000,665.110000 154.670000,665.300000 153.350000,666.650000" transform="matrix(1 0 0 1 0 -0.28519889057634)" clip-rule="evenodd" fill="rgb(208,189,62)" fill-rule="evenodd" stroke="rgb(210,191,62)" stroke-width="0" stroke-miterlimit="10.433000"/><path id="e1q71df7e07n41" d="M153.870000,660.610000L153.960000,660.630000L154.060000,660.660000L154.150000,660.680000L154.250000,660.710000L154.340000,660.750000L154.440000,660.780000L154.540000,660.820000L154.630000,660.860000L154.720000,660.900000L154.820000,660.950000L154.910000,661L155,661.050000L155.090000,661.100000L155.170000,661.160000L155.260000,661.220000L155.340000,661.280000L155.410000,661.340000L155.490000,661.400000L155.560000,661.470000L155.630000,661.540000L155.690000,661.610000L155.750000,661.690000L155.800000,661.760000L155.850000,661.840000L155.900000,661.920000L155.940000,662L155.970000,662.080000L156,662.170000L156.020000,662.260000L156.040000,662.350000L156.050000,662.440000L156.050000,662.530000C156.050000,663.390000,155.160000,664.020000,153.850000,664.020000L151.020000,664.020000C150.820000,664.020000,150.740000,664.020000,150.740000,663.830000C150.740000,663.720000,150.820000,663.720000,151.010000,663.720000C151.040000,663.720000,151.230000,663.720000,151.400000,663.690000C151.570000,663.670000,151.660000,663.660000,151.660000,663.530000C151.660000,663.500000,151.650000,663.470000,151.620000,663.340000L150.290000,658.020000C150.200000,657.620000,150.160000,657.550000,149.380000,657.550000C149.210000,657.550000,149.120000,657.550000,149.120000,657.340000C149.120000,657.230000,149.240000,657.230000,149.260000,657.230000C149.540000,657.230000,150.230000,657.270000,150.510000,657.270000C150.790000,657.270000,151.490000,657.230000,151.770000,657.230000C151.850000,657.230000,151.980000,657.230000,151.980000,657.440000C151.980000,657.550000,151.880000,657.550000,151.700000,657.550000C151.320000,657.550000,151.040000,657.550000,151.040000,657.720000C151.040000,657.780000,151.070000,657.830000,151.070000,657.890000L151.730000,660.520000L152.910000,660.520000L152.900000,660.730000L151.790000,660.730000L152.430000,663.330000C152.490000,663.580000,152.520000,663.670000,152.710000,663.700000C152.800000,663.720000,153.120000,663.720000,153.320000,663.720000C154.020000,663.720000,155.130000,663.720000,155.130000,662.730000C155.130000,662.390000,154.980000,661.700000,154.590000,661.310000C154.320000,661.060000,153.800000,660.730000,152.900000,660.730000L152.910000,660.520000C153.820000,660.520000,153.990000,659.970000,153.990000,659.620000C153.990000,659.470000,153.910000,659.160000,153.850000,658.940000C153.790000,658.660000,153.700000,658.280000,153.700000,658.090000C153.700000,657.020000,154.880000,657.020000,155.020000,657.020000C155.870000,657.020000,156.210000,658.020000,156.210000,658.160000C156.210000,658.280000,156.100000,658.280000,156.090000,658.280000C156.010000,658.280000,155.980000,658.200000,155.960000,658.140000C155.710000,657.410000,155.290000,657.230000,155.050000,657.230000C154.730000,657.230000,154.660000,657.450000,154.660000,657.840000C154.660000,658.140000,154.730000,658.660000,154.760000,658.970000C154.770000,659.110000,154.800000,659.300000,154.800000,659.440000C154.800000,660.200000,154.130000,660.520000,153.870000,660.610000Z" transform="matrix(1 0 0 1 0 -0.28519889057634)" clip-rule="evenodd" fill="rgb(208,189,62)" fill-rule="evenodd" stroke="rgb(210,191,62)" stroke-width="0" stroke-miterlimit="10.433000"/><path id="e1q71df7e07n42" d="M159.600000,662.450000L161.760000,662.450000C161.850000,662.450000,162.030000,662.450000,162.030000,662.600000C162.030000,662.790000,161.850000,662.790000,161.760000,662.790000L159.600000,662.790000L159.600000,664.950000C159.600000,665.040000,159.600000,665.210000,159.450000,665.210000C159.260000,665.210000,159.260000,665.040000,159.260000,664.950000L159.260000,662.790000L157.100000,662.790000C157.010000,662.790000,156.840000,662.790000,156.840000,662.620000C156.840000,662.450000,157.010000,662.450000,157.100000,662.450000L159.260000,662.450000L159.260000,660.290000C159.260000,660.200000,159.260000,660.020000,159.430000,660.020000C159.600000,660.020000,159.600000,660.180000,159.600000,660.290000Z" transform="matrix(1 0 0 1 0 -0.28519889057634)" clip-rule="evenodd" fill="rgb(208,189,62)" fill-rule="evenodd" stroke="rgb(210,191,62)" stroke-width="0" stroke-miterlimit="10.433000"/><path id="e1q71df7e07n43" d="M166.250000,654.840000L166.250000,654.850000L166.250000,654.860000L166.250000,654.860000L166.250000,654.860000L166.250000,654.870000L166.250000,654.870000L166.250000,654.870000L166.250000,654.880000L166.240000,654.880000L166.240000,654.890000L166.240000,654.890000L166.240000,654.900000L166.230000,654.900000L166.230000,654.910000L166.230000,654.910000L166.220000,654.920000L166.220000,654.930000L166.210000,654.930000L166.210000,654.940000L166.200000,654.940000L166.200000,654.950000L166.200000,654.950000L166.190000,654.960000L166.190000,654.960000L166.180000,654.970000L166.180000,654.970000L166.180000,654.980000L166.170000,654.980000L166.170000,654.990000L166.160000,654.990000L166.160000,655L166.150000,655L166.150000,655.010000L166.140000,655.020000L166.130000,655.020000L166.130000,655.030000L166.120000,655.030000L166.110000,655.040000L166.110000,655.050000L166.100000,655.060000L166.090000,655.060000C164.840000,656.330000,164.530000,658.200000,164.530000,659.720000C164.530000,661.450000,164.910000,663.170000,166.120000,664.420000C166.250000,664.530000,166.250000,664.560000,166.250000,664.580000C166.250000,664.660000,166.220000,664.690000,166.160000,664.690000C166.060000,664.690000,165.170000,664.020000,164.580000,662.750000C164.080000,661.660000,163.950000,660.550000,163.950000,659.720000C163.950000,658.940000,164.060000,657.730000,164.610000,656.620000C165.200000,655.390000,166.060000,654.750000,166.160000,654.750000C166.220000,654.750000,166.250000,654.780000,166.250000,654.840000Z" transform="matrix(1 0 0 1 0 -0.28519889057634)" clip-rule="evenodd" fill="rgb(208,189,62)" fill-rule="evenodd" stroke="rgb(210,191,62)" stroke-width="0" stroke-miterlimit="10.433000"/><polygon id="e1q71df7e07n44" points="168.410000,665.410000 168.590000,665.220000 169.740000,666.240000 170.880000,665.220000 171.050000,665.410000 169.740000,666.750000" transform="matrix(1 0 0 1 0 -0.28519889057634)" clip-rule="evenodd" fill="rgb(208,189,62)" fill-rule="evenodd" stroke="rgb(210,191,62)" stroke-width="0" stroke-miterlimit="10.433000"/><path id="e1q71df7e07n45" d="M170.390000,660.140000L170.430000,660.040000L170.470000,659.940000L170.550000,659.730000L170.620000,659.510000L170.700000,659.300000L170.780000,659.080000L170.860000,658.860000L170.930000,658.640000L170.970000,658.540000L171.010000,658.440000L171.040000,658.340000L171.080000,658.240000L171.110000,658.150000L171.140000,658.060000L171.180000,657.970000L171.210000,657.890000L171.240000,657.810000L171.270000,657.730000L171.290000,657.660000L171.320000,657.600000L171.340000,657.540000L171.360000,657.490000L171.390000,657.440000L171.400000,657.400000L171.420000,657.370000L171.440000,657.340000C171.590000,657.120000,171.690000,657.120000,171.950000,657.120000L172.170000,657.120000C172.280000,657.140000,172.280000,657.190000,172.280000,657.220000C172.280000,657.250000,172.270000,657.280000,172.230000,657.310000C172.140000,657.420000,172.080000,657.580000,172.020000,657.770000L169.980000,663.420000C169.780000,664,169.230000,664.120000,168.770000,664.120000C168.720000,664.120000,168.590000,664.120000,168.590000,664.020000C168.590000,663.940000,168.670000,663.920000,168.690000,663.920000C169.020000,663.860000,169.080000,663.800000,169.330000,663.120000L170.300000,660.420000L167.550000,657.700000C167.440000,657.580000,167.380000,657.520000,167.380000,657.390000C167.380000,657.220000,167.520000,657.110000,167.670000,657.110000C167.830000,657.110000,167.920000,657.220000,168,657.310000Z" transform="matrix(1 0 0 1 0 -0.28519889057634)" clip-rule="evenodd" fill="rgb(208,189,62)" fill-rule="evenodd" stroke="rgb(210,191,62)" stroke-width="0" stroke-miterlimit="10.433000"/><path id="e1q71df7e07n46" d="M175.530000,659.720000L175.530000,659.790000L175.530000,659.870000L175.520000,660.030000L175.510000,660.200000L175.500000,660.370000L175.490000,660.560000L175.460000,660.740000L175.440000,660.940000L175.400000,661.140000L175.360000,661.340000L175.320000,661.550000L175.270000,661.750000L175.200000,661.960000L175.130000,662.180000L175.060000,662.390000L175.010000,662.500000L174.970000,662.600000L174.920000,662.710000L174.870000,662.810000C174.280000,664.030000,173.420000,664.690000,173.320000,664.690000C173.260000,664.690000,173.210000,664.640000,173.210000,664.580000C173.210000,664.560000,173.210000,664.530000,173.400000,664.360000C174.390000,663.380000,174.950000,661.800000,174.950000,659.720000C174.950000,658.020000,174.570000,656.270000,173.350000,655.020000C173.210000,654.910000,173.210000,654.880000,173.210000,654.840000C173.210000,654.800000,173.260000,654.750000,173.320000,654.750000C173.420000,654.750000,174.310000,655.420000,174.900000,656.690000C175.400000,657.780000,175.530000,658.890000,175.530000,659.720000Z" transform="matrix(1 0 0 1 0 -0.28519889057634)" clip-rule="evenodd" fill="rgb(208,189,62)" fill-rule="evenodd" stroke="rgb(210,191,62)" stroke-width="0" stroke-miterlimit="10.433000"/></g><g id="e1q71df7e07n47" transform="matrix(0 0 0 0 1680.83727864499974 460.47571130999989)"><polygon id="e1q71df7e07n48" points="54.940000,61.280000 56.340000,19.590000 43.620000,19.590000 45.020000,61.280000 54.940000,61.280000" transform="matrix(1 0 0 1 0 1.33333333333333)" fill="rgb(255,0,0)" stroke="none" stroke-width="1"/><path id="e1q71df7e07n49" d="M54.830000,69.590000C53.521841,68.376224,51.782965,67.735396,50,67.810000C48.219222,67.734843,46.483942,68.384220,45.190000,69.610000C43.970296,70.792205,43.302751,72.432044,43.350000,74.130000C43.300934,75.822426,43.969213,77.456803,45.190000,78.630000C46.490228,79.843592,48.222980,80.484818,50,80.410000C51.789616,80.488888,53.536296,79.847839,54.850000,78.630000C57.267936,76.117201,57.267936,72.142799,54.850000,69.630000Z" transform="matrix(1 0 0 1 0 1.33333333333333)" fill="rgb(255,0,0)" stroke="none" stroke-width="1"/></g><script><![CDATA[!function(t,n){"object"==typeof exports&&"undefined"!=typeof module?module.exports=n():"function"==typeof define&&define.amd?define(n):(t=t||self).__SVGATOR_PLAYER__=n()}(this,(function(){"use strict";function t(n){return(t="function"==typeof Symbol&&"symbol"==typeof Symbol.iterator?function(t){return typeof t}:function(t){return t&&"function"==typeof Symbol&&t.constructor===Symbol&&t!==Symbol.prototype?"symbol":typeof t})(n)}function n(t,n){if(!(t instanceof n))throw new TypeError("Cannot call a class as a function")}function e(t,n){for(var e=0;e<n.length;e++){var r=n[e];r.enumerable=r.enumerable||!1,r.configurable=!0,"value"in r&&(r.writable=!0),Object.defineProperty(t,r.key,r)}}function r(t,n,r){return n&&e(t.prototype,n),r&&e(t,r),t}function i(t){return(i=Object.setPrototypeOf?Object.getPrototypeOf:function(t){return t.__proto__||Object.getPrototypeOf(t)})(t)}function u(t,n){return(u=Object.setPrototypeOf||function(t,n){return t.__proto__=n,t})(t,n)}function o(t,n){return!n||"object"!=typeof n&&"function"!=typeof n?function(t){if(void 0===t)throw new ReferenceError("this hasn't been initialised - super() hasn't been called");return t}(t):n}function a(t){var n=function(){if("undefined"==typeof Reflect||!Reflect.construct)return!1;if(Reflect.construct.sham)return!1;if("function"==typeof Proxy)return!0;try{return Date.prototype.toString.call(Reflect.construct(Date,[],(function(){}))),!0}catch(t){return!1}}();return function(){var e,r=i(t);if(n){var u=i(this).constructor;e=Reflect.construct(r,arguments,u)}else e=r.apply(this,arguments);return o(this,e)}}function l(t,n,e){return(l="undefined"!=typeof Reflect&&Reflect.get?Reflect.get:function(t,n,e){var r=function(t,n){for(;!Object.prototype.hasOwnProperty.call(t,n)&&null!==(t=i(t)););return t}(t,n);if(r){var u=Object.getOwnPropertyDescriptor(r,n);return u.get?u.get.call(e):u.value}})(t,n,e||t)}var f=Math.abs;function s(t){return t}function c(t,n,e){var r=1-e;return 3*e*r*(t*r+n*e)+e*e*e}function h(){var t=arguments.length>0&&void 0!==arguments[0]?arguments[0]:0,n=arguments.length>1&&void 0!==arguments[1]?arguments[1]:0,e=arguments.length>2&&void 0!==arguments[2]?arguments[2]:1,r=arguments.length>3&&void 0!==arguments[3]?arguments[3]:1;return t<0||t>1||e<0||e>1?null:f(t-n)<=1e-5&&f(e-r)<=1e-5?s:function(i){if(i<=0)return t>0?i*n/t:0===n&&e>0?i*r/e:0;if(i>=1)return e<1?1+(i-1)*(r-1)/(e-1):1===e&&t<1?1+(i-1)*(n-1)/(t-1):1;for(var u,o=0,a=1;o<a;){var l=c(t,e,u=(o+a)/2);if(f(i-l)<1e-5)break;l<i?o=u:a=u}return c(n,r,u)}}function v(){return 1}function d(t){return 1===t?1:0}function y(){var t=arguments.length>0&&void 0!==arguments[0]?arguments[0]:1,n=arguments.length>1&&void 0!==arguments[1]?arguments[1]:0;if(1===t){if(0===n)return d;if(1===n)return v}var e=1/t;return function(t){return t>=1?1:(t+=n*e)-t%e}}function g(t){var n=arguments.length>1&&void 0!==arguments[1]?arguments[1]:2;if(Number.isInteger(t))return t;var e=Math.pow(10,n);return Math.round(t*e)/e}var p=Math.PI/180;function m(t,n,e){return t>=.5?e:n}function b(t,n,e){return 0===t||n===e?n:t*(e-n)+n}function w(t,n,e){var r=b(t,n,e);return r<=0?0:r}function x(t,n,e){return 0===t?n:1===t?e:{x:b(t,n.x,e.x),y:b(t,n.y,e.y)}}function k(t,n,e){return 0===t?n:1===t?e:{x:w(t,n.x,e.x),y:w(t,n.y,e.y)}}function A(t,n,e){var r=function(t,n,e){return Math.round(b(t,n,e))}(t,n,e);return r<=0?0:r>=255?255:r}function _(t,n,e){return 0===t?n:1===t?e:{r:A(t,n.r,e.r),g:A(t,n.g,e.g),b:A(t,n.b,e.b),a:b(t,null==n.a?1:n.a,null==e.a?1:e.a)}}function S(t,n,e){if(0===t)return n;if(1===t)return e;var r=n.length;if(r!==e.length)return m(t,n,e);for(var i=[],u=0;u<r;u++)i.push(_(t,n[u],e[u]));return i}function M(t,n,e){var r=n.length;if(r!==e.length)return m(t,n,e);for(var i=new Array(r),u=0;u<r;u++)i[u]=b(t,n[u],e[u]);return i}function O(t,n){for(var e=[],r=0;r<t;r++)e.push(n);return e}function E(t,n){if(--n<=0)return t;var e=(t=Object.assign([],t)).length;do{for(var r=0;r<e;r++)t.push(t[r])}while(--n>0);return t}var B,I=function(){function t(e){n(this,t),this.list=e,this.length=e.length}return r(t,[{key:"setAttribute",value:function(t,n){for(var e=this.list,r=0;r<this.length;r++)e[r].setAttribute(t,n)}},{key:"removeAttribute",value:function(t){for(var n=this.list,e=0;e<this.length;e++)n[e].removeAttribute(t)}},{key:"style",value:function(t,n){for(var e=this.list,r=0;r<this.length;r++)e[r].style[t]=n}}]),t}(),j=/-./g,P=function(t,n){return n.toUpperCase()};function F(t){return"function"==typeof t?t:m}function R(t){return t?"function"==typeof t?t:Array.isArray(t)?function(t){var n=arguments.length>1&&void 0!==arguments[1]?arguments[1]:s;if(!Array.isArray(t))return n;switch(t.length){case 1:return y(t[0])||n;case 2:return y(t[0],t[1])||n;case 4:return h(t[0],t[1],t[2],t[3])||n}return n}(t,null):function(t,n){var e=arguments.length>2&&void 0!==arguments[2]?arguments[2]:s;switch(t){case"linear":return s;case"steps":return y(n.steps||1,n.jump||0)||e;case"bezier":case"cubic-bezier":return h(n.x1||0,n.y1||0,n.x2||0,n.y2||0)||e}return e}(t.type,t.value,null):null}function T(t,n,e){var r=arguments.length>3&&void 0!==arguments[3]&&arguments[3],i=n.length-1;if(t<=n[0].t)return r?[0,0,n[0].v]:n[0].v;if(t>=n[i].t)return r?[i,1,n[i].v]:n[i].v;var u,o=n[0],a=null;for(u=1;u<=i;u++){if(!(t>n[u].t)){a=n[u];break}o=n[u]}return null==a?r?[i,1,n[i].v]:n[i].v:o.t===a.t?r?[u,1,a.v]:a.v:(t=(t-o.t)/(a.t-o.t),o.e&&(t=o.e(t)),r?[u,t,e(t,o.v,a.v)]:e(t,o.v,a.v))}function q(t,n){var e=arguments.length>2&&void 0!==arguments[2]?arguments[2]:null;return t&&t.length?"function"!=typeof n?null:("function"!=typeof e&&(e=null),function(r){var i=T(r,t,n);return null!=i&&e&&(i=e(i)),i}):null}function C(t,n){return t.t-n.t}function V(n,e,r,i,u){var o,a="@"===r[0],l="#"===r[0],f=B[r],s=m;switch(a?(o=r.substr(1),r=o.replace(j,P)):l&&(r=r.substr(1)),t(f)){case"function":if(s=f(i,u,T,R,r,a,e,n),l)return s;break;case"string":s=q(i,F(f));break;case"object":if((s=q(i,F(f.i),f.f))&&"function"==typeof f.u)return f.u(e,s,r,a,n)}return s?function(t,n,e){var r=arguments.length>3&&void 0!==arguments[3]&&arguments[3];if(r)return t instanceof I?function(r){return t.style(n,e(r))}:function(r){return t.style[n]=e(r)};if(Array.isArray(n)){var i=n.length;return function(r){var u=e(r);if(null==u)for(var o=0;o<i;o++)t[o].removeAttribute(n);else for(var a=0;a<i;a++)t[a].setAttribute(n,u)}}return function(r){var i=e(r);null==i?t.removeAttribute(n):t.setAttribute(n,i)}}(e,r,s,a):null}function N(n,e,r,i){if(!i||"object"!==t(i))return null;var u=null,o=null;return Array.isArray(i)?o=function(t){if(!t||!t.length)return null;for(var n=0;n<t.length;n++)t[n].e&&(t[n].e=R(t[n].e));return t.sort(C)}(i):(o=i.keys,u=i.data||null),o?V(n,e,r,o,u):null}function z(t,n,e){if(!e)return null;var r=[];for(var i in e)if(e.hasOwnProperty(i)){var u=N(t,n,i,e[i]);u&&r.push(u)}return r.length?r:null}function D(t,n){if(!n.duration||n.duration<0)return null;var e=function(t,n){if(!n)return null;var e=[];if(Array.isArray(n))for(var r=n.length,i=0;i<r;i++){var u=n[i];if(2===u.length){var o=null;if("string"==typeof u[0])o=t.getElementById(u[0]);else if(Array.isArray(u[0])){o=[];for(var a=0;a<u[0].length;a++)if("string"==typeof u[0][a]){var l=t.getElementById(u[0][a]);l&&o.push(l)}o=o.length?1===o.length?o[0]:new I(o):null}if(o){var f=z(t,o,u[1]);f&&(e=e.concat(f))}}}else for(var s in n)if(n.hasOwnProperty(s)){var c=t.getElementById(s);if(c){var h=z(t,c,n[s]);h&&(e=e.concat(h))}}return e.length?e:null}(t,n.elements);return e?function(t,n){var e=arguments.length>2&&void 0!==arguments[2]?arguments[2]:1/0,r=arguments.length>3&&void 0!==arguments[3]?arguments[3]:1,i=arguments.length>4&&void 0!==arguments[4]&&arguments[4],u=arguments.length>5&&void 0!==arguments[5]?arguments[5]:1,o=t.length,a=r>0?n:0;i&&e%2==0&&(a=n-a);var l=null;return function(f,s){var c=f%n,h=1+(f-c)/n;s*=r,i&&h%2==0&&(s=-s);var v=!1;if(h>e)c=a,v=!0,-1===u&&(c=r>0?0:n);else if(s<0&&(c=n-c),c===l)return!1;l=c;for(var d=0;d<o;d++)t[d](c);return v}}(e,n.duration,n.iterations||1/0,n.direction||1,!!n.alternate,n.fill||1):null}function L(t,n){if(B=n,!t||!t.root||!Array.isArray(t.animations))return null;for(var e=document.getElementsByTagName("svg"),r=!1,i=0;i<e.length;i++)if(e[i].id===t.root&&!e[i].svgatorAnimation){(r=e[i]).svgatorAnimation=!0;break}if(!r)return null;var u=t.animations.map((function(t){return D(r,t)})).filter((function(t){return!!t}));return u.length?{element:r,animations:u,animationSettings:t.animationSettings,options:t.options||void 0}:null}var U=function(){function t(e,r){var i=arguments.length>2&&void 0!==arguments[2]?arguments[2]:{};n(this,t),this._id=0,this._running=!1,this._rollingBack=!1,this._animations=e,this.duration=r.duration,this.alternate=r.alternate,this.fill=r.fill,this.iterations=r.iterations,this.direction=i.direction||1,this.speed=i.speed||1,this.fps=i.fps||100,this.offset=i.offset||0,this.rollbackStartOffset=0}return r(t,[{key:"_rollback",value:function(){var t=this,n=1/0,e=null;this.rollbackStartOffset=this.offset,this._rollingBack||(this._rollingBack=!0,this._running=!0);this._id=window.requestAnimationFrame((function r(i){if(t._rollingBack){null==e&&(e=i);var u=i-e,o=t.rollbackStartOffset-u,a=Math.round(o*t.speed);if(a>t.duration&&n!=1/0){var l=!!t.alternate&&a/t.duration%2>1,f=a%t.duration;a=(f+=l?t.duration:0)||t.duration}var s=t.fps?1e3/t.fps:0,c=Math.max(0,a);if(c<n-s){t.offset=c,n=c;for(var h=t._animations,v=h.length,d=0;d<v;d++)h[d](c,t.direction)}var y=!1;if(t.iterations>0&&-1===t.fill){var g=t.iterations*t.duration,p=g==a;a=p?0:a,t.offset=p?0:t.offset,y=a>g}a>0&&t.offset>=a&&!y?t._id=window.requestAnimationFrame(r):t.stop()}}))}},{key:"_start",value:function(){var t=this,n=arguments.length>0&&void 0!==arguments[0]?arguments[0]:0,e=-1/0,r=null,i={},u=function u(o){t._running=!0,null==r&&(r=o);var a=Math.round((o-r+n)*t.speed),l=t.fps?1e3/t.fps:0;if(a>e+l&&!t._rollingBack){t.offset=a,e=a;for(var f=t._animations,s=f.length,c=0,h=0;h<s;h++)i[h]?c++:(i[h]=f[h](a,t.direction),i[h]&&c++);if(c===s)return void t._stop()}t._id=window.requestAnimationFrame(u)};this._id=window.requestAnimationFrame(u)}},{key:"_stop",value:function(){this._id&&window.cancelAnimationFrame(this._id),this._running=!1,this._rollingBack=!1}},{key:"play",value:function(){!this._rollingBack&&this._running||(this._rollingBack=!1,this.rollbackStartOffset>this.duration&&(this.offset=this.rollbackStartOffset-(this.rollbackStartOffset-this.offset)%this.duration,this.rollbackStartOffset=0),this._start(this.offset))}},{key:"stop",value:function(){this._stop(),this.offset=0,this.rollbackStartOffset=0;var t=this.direction,n=this._animations;window.requestAnimationFrame((function(){for(var e=0;e<n.length;e++)n[e](0,t)}))}},{key:"reachedToEnd",value:function(){return this.iterations>0&&this.offset>=this.iterations*this.duration}},{key:"restart",value:function(){this._stop(),this.offset=0,this._start()}},{key:"pause",value:function(){this._stop()}},{key:"reverse",value:function(){this.direction=-this.direction}}],[{key:"build",value:function(n,e){return(n=L(n,e))?{el:n.element,options:n.options||{},player:new t(n.animations,n.animationSettings,n.options)}:null}}]),t}();!function(){for(var t=0,n=["ms","moz","webkit","o"],e=0;e<n.length&&!window.requestAnimationFrame;++e)window.requestAnimationFrame=window[n[e]+"RequestAnimationFrame"],window.cancelAnimationFrame=window[n[e]+"CancelAnimationFrame"]||window[n[e]+"CancelRequestAnimationFrame"];window.requestAnimationFrame||(window.requestAnimationFrame=function(n){var e=Date.now(),r=Math.max(0,16-(e-t)),i=window.setTimeout((function(){n(e+r)}),r);return t=e+r,i},window.cancelAnimationFrame=window.clearTimeout)}();var W=function(t,n){var e=!1,r=null;return function(i){e&&clearTimeout(e),e=setTimeout((function(){return function(){for(var i=0,u=window.innerHeight,o=0,a=window.innerWidth,l=t.parentNode;l instanceof Element;){var f=window.getComputedStyle(l);if("visible"!==f.overflowY||"visible"!==f.overflowX){var s=l.getBoundingClientRect();"visible"!==f.overflowY&&(i=Math.max(i,s.top),u=Math.min(u,s.bottom)),"visible"!==f.overflowX&&(o=Math.max(o,s.left),a=Math.min(a,s.right))}if(l===l.parentNode)break;l=l.parentNode}e=!1;var c=t.getBoundingClientRect(),h=Math.min(c.height,Math.max(0,i-c.top)),v=Math.min(c.height,Math.max(0,c.bottom-u)),d=Math.min(c.width,Math.max(0,o-c.left)),y=Math.min(c.width,Math.max(0,c.right-a)),g=(c.height-h-v)/c.height,p=(c.width-d-y)/c.width,m=Math.round(g*p*100);null!==r&&r===m||(r=m,n(m))}()}),100)}},Y=function(){function t(e,r,i){n(this,t),r=Math.max(1,r||1),r=Math.min(r,100),this.el=e,this.onTresholdChange=i&&i.call?i:function(){},this.tresholdPercent=r||1,this.currentVisibility=null,this.visibilityCalculator=W(e,this.onVisibilityUpdate.bind(this)),this.bindScrollWatchers(),this.visibilityCalculator()}return r(t,[{key:"bindScrollWatchers",value:function(){for(var t=this.el.parentNode;t&&(t.addEventListener("scroll",this.visibilityCalculator),t!==t.parentNode&&t!==document);)t=t.parentNode}},{key:"onVisibilityUpdate",value:function(t){var n=this.currentVisibility>=this.tresholdPercent,e=t>=this.tresholdPercent;if(null===this.currentVisibility||n!==e)return this.currentVisibility=t,void this.onTresholdChange(e);this.currentVisibility=t}}]),t}(),G=/\.0+$/g;function H(t){return Number.isInteger(t)?t+"":t.toFixed(6).replace(G,"")}function X(t){var n=arguments.length>1&&void 0!==arguments[1]?arguments[1]:" ";return t&&t.length?t.map(H).join(n):""}function $(t){return H(t.x)+","+H(t.y)}function Q(t){return t?null==t.a||t.a>=1?"rgb("+t.r+","+t.g+","+t.b+")":"rgba("+t.r+","+t.g+","+t.b+","+t.a+")":"transparent"}var Z={f:null,i:k,u:function(t,n){return function(e){var r=n(e);t.setAttribute("rx",H(r.x)),t.setAttribute("ry",H(r.y))}}},J={f:null,i:function(t,n,e){return 0===t?n:1===t?e:{width:w(t,n.width,e.width),height:w(t,n.height,e.height)}},u:function(t,n){return function(e){var r=n(e);t.setAttribute("width",H(r.width)),t.setAttribute("height",H(r.height))}}},K=Math.sin,tt=Math.cos,nt=Math.acos,et=Math.asin,rt=Math.tan,it=Math.atan2,ut=Math.PI/180,ot=180/Math.PI,at=Math.sqrt,lt=function(){function t(){var e=arguments.length>0&&void 0!==arguments[0]?arguments[0]:1,r=arguments.length>1&&void 0!==arguments[1]?arguments[1]:0,i=arguments.length>2&&void 0!==arguments[2]?arguments[2]:0,u=arguments.length>3&&void 0!==arguments[3]?arguments[3]:1,o=arguments.length>4&&void 0!==arguments[4]?arguments[4]:0,a=arguments.length>5&&void 0!==arguments[5]?arguments[5]:0;n(this,t),this.m=[e,r,i,u,o,a],this.i=null,this.w=null,this.s=null}return r(t,[{key:"point",value:function(t,n){var e=this.m;return{x:e[0]*t+e[2]*n+e[4],y:e[1]*t+e[3]*n+e[5]}}},{key:"translateSelf",value:function(){var t=arguments.length>0&&void 0!==arguments[0]?arguments[0]:0,n=arguments.length>1&&void 0!==arguments[1]?arguments[1]:0;if(!t&&!n)return this;var e=this.m;return e[4]+=e[0]*t+e[2]*n,e[5]+=e[1]*t+e[3]*n,this.w=this.s=this.i=null,this}},{key:"rotateSelf",value:function(){var t=arguments.length>0&&void 0!==arguments[0]?arguments[0]:0;if(t%=360){var n=K(t*=ut),e=tt(t),r=this.m,i=r[0],u=r[1];r[0]=i*e+r[2]*n,r[1]=u*e+r[3]*n,r[2]=r[2]*e-i*n,r[3]=r[3]*e-u*n,this.w=this.s=this.i=null}return this}},{key:"scaleSelf",value:function(){var t=arguments.length>0&&void 0!==arguments[0]?arguments[0]:1,n=arguments.length>1&&void 0!==arguments[1]?arguments[1]:1;if(1!==t||1!==n){var e=this.m;e[0]*=t,e[1]*=t,e[2]*=n,e[3]*=n,this.w=this.s=this.i=null}return this}},{key:"skewSelf",value:function(t,n){if(n%=360,(t%=360)||n){var e=this.m,r=e[0],i=e[1],u=e[2],o=e[3];t&&(t=rt(t*ut),e[2]+=r*t,e[3]+=i*t),n&&(n=rt(n*ut),e[0]+=u*n,e[1]+=o*n),this.w=this.s=this.i=null}return this}},{key:"resetSelf",value:function(){var t=arguments.length>0&&void 0!==arguments[0]?arguments[0]:1,n=arguments.length>1&&void 0!==arguments[1]?arguments[1]:0,e=arguments.length>2&&void 0!==arguments[2]?arguments[2]:0,r=arguments.length>3&&void 0!==arguments[3]?arguments[3]:1,i=arguments.length>4&&void 0!==arguments[4]?arguments[4]:0,u=arguments.length>5&&void 0!==arguments[5]?arguments[5]:0,o=this.m;return o[0]=t,o[1]=n,o[2]=e,o[3]=r,o[4]=i,o[5]=u,this.w=this.s=this.i=null,this}},{key:"recomposeSelf",value:function(){var t=arguments.length>0&&void 0!==arguments[0]?arguments[0]:null,n=arguments.length>1&&void 0!==arguments[1]?arguments[1]:null,e=arguments.length>2&&void 0!==arguments[2]?arguments[2]:null,r=arguments.length>3&&void 0!==arguments[3]?arguments[3]:null,i=arguments.length>4&&void 0!==arguments[4]?arguments[4]:null;return this.isIdentity||this.resetSelf(),t&&(t.x||t.y)&&this.translateSelf(t.x,t.y),n&&this.rotateSelf(n),e&&(e.x&&this.skewSelf(e.x,0),e.y&&this.skewSelf(0,e.y)),!r||1===r.x&&1===r.y||this.scaleSelf(r.x,r.y),i&&(i.x||i.y)&&this.translateSelf(i.x,i.y),this}},{key:"decompose",value:function(){var t=arguments.length>0&&void 0!==arguments[0]?arguments[0]:0,n=arguments.length>1&&void 0!==arguments[1]?arguments[1]:0,e=this.m,r=e[0]*e[0]+e[1]*e[1],i=[[e[0],e[1]],[e[2],e[3]]],u=at(r);if(0===u)return{origin:{x:e[4],y:e[5]},translate:{x:t,y:n},scale:{x:0,y:0},skew:{x:0,y:0},rotate:0};i[0][0]/=u,i[0][1]/=u;var o=e[0]*e[3]-e[1]*e[2]<0;o&&(u=-u);var a=i[0][0]*i[1][0]+i[0][1]*i[1][1];i[1][0]-=i[0][0]*a,i[1][1]-=i[0][1]*a;var l=at(i[1][0]*i[1][0]+i[1][1]*i[1][1]);if(0===l)return{origin:{x:e[4],y:e[5]},translate:{x:t,y:n},scale:{x:u,y:0},skew:{x:0,y:0},rotate:0};i[1][0]/=l,i[1][1]/=l,a/=l;var f=0;return i[1][1]<0?(f=nt(i[1][1])*ot,i[0][1]<0&&(f=360-f)):f=et(i[0][1])*ot,o&&(f=-f),a=it(a,at(i[0][0]*i[0][0]+i[0][1]*i[0][1]))*ot,{origin:{x:e[4],y:e[5]},translate:{x:t,y:n},scale:{x:u,y:l},skew:{x:a,y:0},rotate:f}}},{key:"toString",value:function(){return null===this.s&&(this.s="matrix("+this.m.map(st).join(" ")+")"),this.s}},{key:"determinant",get:function(){var t=this.m;return t[0]*t[3]-t[1]*t[2]}},{key:"isIdentity",get:function(){if(null===this.i){var t=this.m;this.i=1===t[0]&&0===t[1]&&0===t[2]&&1===t[3]&&0===t[4]&&0===t[5]}return this.i}}]),t}(),ft=/\.0+$/;function st(t){return Number.isInteger(t)?t:t.toFixed(14).replace(ft,"")}Object.freeze({M:2,L:2,Z:0,H:1,V:1,C:6,Q:4,T:2,S:4,A:7});function ct(t,n,e){return t+(n-t)*e}function ht(t,n,e){var r=arguments.length>3&&void 0!==arguments[3]&&arguments[3],i={x:ct(t.x,n.x,e),y:ct(t.y,n.y,e)};return r&&(i.a=vt(t,n)),i}function vt(t,n){return Math.atan2(n.y-t.y,n.x-t.x)}function dt(t,n,e,r){var i=1-r;return i*i*t+2*i*r*n+r*r*e}function yt(t,n,e,r){return 2*(1-r)*(n-t)+2*r*(e-n)}function gt(t,n,e,r){var i=arguments.length>4&&void 0!==arguments[4]&&arguments[4],u={x:dt(t.x,n.x,e.x,r),y:dt(t.y,n.y,e.y,r)};return i&&(u.a=pt(t,n,e,r)),u}function pt(t,n,e,r){return Math.atan2(yt(t.y,n.y,e.y,r),yt(t.x,n.x,e.x,r))}function mt(t,n,e,r,i){var u=i*i;return i*u*(r-t+3*(n-e))+3*u*(t+e-2*n)+3*i*(n-t)+t}function bt(t,n,e,r,i){var u=1-i;return 3*(u*u*(n-t)+2*u*i*(e-n)+i*i*(r-e))}function wt(t,n,e,r,i){var u=arguments.length>5&&void 0!==arguments[5]&&arguments[5],o={x:mt(t.x,n.x,e.x,r.x,i),y:mt(t.y,n.y,e.y,r.y,i)};return u&&(o.a=xt(t,n,e,r,i)),o}function xt(t,n,e,r,i){return Math.atan2(bt(t.y,n.y,e.y,r.y,i),bt(t.x,n.x,e.x,r.x,i))}function kt(t,n,e){var r=arguments.length>3&&void 0!==arguments[3]&&arguments[3];if(_t(n)){if(St(e))return gt(n,e.start,e,t,r)}else if(_t(e)){if(n.end)return gt(n,n.end,e,t,r)}else{if(n.end)return e.start?wt(n,n.end,e.start,e,t,r):gt(n,n.end,e,t,r);if(e.start)return gt(n,e.start,e,t,r)}return ht(n,e,t,r)}function At(t,n,e){var r=kt(t,n,e,!0);return r.a=function(t){var n=arguments.length>1&&void 0!==arguments[1]&&arguments[1];return n?t+Math.PI:t}(r.a)/p,r}function _t(t){return!t.type||"corner"===t.type}function St(t){return null!=t.start&&!_t(t)}var Mt=new lt;var Ot={f:function(t){return t?t.join(" "):""},i:function(n,e,r){if(0===n)return e;if(1===n)return r;var i=e.length;if(i!==r.length)return m(n,e,r);for(var u,o=new Array(i),a=0;a<i;a++){if((u=t(e[a]))!==t(r[a]))return m(n,e,r);if("number"===u)o[a]=b(n,e[a],r[a]);else{if(e[a]!==r[a])return m(n,e,r);o[a]=e[a]}}return o}},Et={f:null,i:M,u:function(t,n){return function(e){var r=n(e);t.setAttribute("x1",H(r[0])),t.setAttribute("y1",H(r[1])),t.setAttribute("x2",H(r[2])),t.setAttribute("y2",H(r[3]))}}},Bt={f:H,i:b},It={f:H,i:function(t,n,e){var r=b(t,n,e);return r<=0?0:r>=1?1:r}},jt={f:function(t){var n=arguments.length>1&&void 0!==arguments[1]?arguments[1]:" ";return t&&t.length>0&&(t=t.map((function(t){return Math.floor(1e4*t)/1e4}))),X(t,n)},i:function(t,n,e){var r,i,u,o=n.length,a=e.length;if(o!==a)if(0===o)n=O(o=a,0);else if(0===a)a=o,e=O(o,0);else{var l=(u=(r=o)*(i=a)/function(t,n){for(var e;n;)e=n,n=t%n,t=e;return t||1}(r,i))<0?-u:u;n=E(n,Math.floor(l/o)),e=E(e,Math.floor(l/a)),o=a=l}for(var f=[],s=0;s<o;s++)f.push(g(w(t,n[s],e[s]),6));return f}};function Pt(t,n,e,r,i,u,o,a){return n=function(t,n,e){for(var r,i,u,o=t.length-1,a={},l=0;l<=o;l++)(r=t[l]).e&&(r.e=n(r.e)),r.v&&"g"===(i=r.v).t&&i.r&&(u=e.getElementById(i.r))&&(a[i.r]=u.querySelectorAll("stop"));return a}(t,r,a),function(r){var i,u=e(r,t,Ft);return u?"c"===u.t?Q(u.v):"g"===u.t?(n[u.r]&&function(t,n){for(var e=0,r=t.length;e<r;e++)t[e].setAttribute("stop-color",Q(n[e]))}(n[u.r],u.v),(i=u.r)?"url(#"+i+")":"none"):"none":"none"}}function Ft(t,n,e){if(0===t)return n;if(1===t)return e;if(n&&e){var r=n.t;if(r===e.t)switch(n.t){case"c":return{t:r,v:_(t,n.v,e.v)};case"g":if(n.r===e.r)return{t:r,v:S(t,n.v,e.v),r:n.r}}}return m(t,n,e)}var Rt={blur:k,brightness:w,contrast:w,"drop-shadow":function(t,n,e){return 0===t?n:1===t?e:{blur:k(t,n.blur,e.blur),offset:x(t,n.offset,e.offset),color:_(t,n.color,e.color)}},grayscale:w,"hue-rotate":b,invert:w,opacity:w,saturate:w,sepia:w};function Tt(t,n,e){if(0===t)return n;if(1===t)return e;var r=n.length;if(r!==e.length)return m(t,n,e);for(var i,u=[],o=0;o<r;o++){if(n[o].type!==e[o].type)return n;if(!(i=Rt[n[o].type]))return m(t,n,e);u.push({type:n.type,value:i(t,n[o].value,e[o].value)})}return u}var qt={blur:function(t){return t?function(n){t.setAttribute("stdDeviation",$(n))}:null},brightness:function(t,n,e){return(t=Vt(e,n))?function(n){n=H(n),t.map((function(t){return t.setAttribute("slope",n)}))}:null},contrast:function(t,n,e){return(t=Vt(e,n))?function(n){var e=H((1-n)/2);n=H(n),t.map((function(t){t.setAttribute("slope",n),t.setAttribute("intercept",e)}))}:null},"drop-shadow":function(t,n,e){var r=e.getElementById(n+"-blur");if(!r)return null;var i=e.getElementById(n+"-offset");if(!i)return null;var u=e.getElementById(n+"-flood");return u?function(t){r.setAttribute("stdDeviation",$(t.blur)),i.setAttribute("dx",H(t.offset.x)),i.setAttribute("dy",H(t.offset.y)),u.setAttribute("flood-color",Q(t.color))}:null},grayscale:function(t){return t?function(n){t.setAttribute("values",X(function(t){return[.2126+.7874*(t=1-t),.7152-.7152*t,.0722-.0722*t,0,0,.2126-.2126*t,.7152+.2848*t,.0722-.0722*t,0,0,.2126-.2126*t,.7152-.7152*t,.0722+.9278*t,0,0,0,0,0,1,0]}(n)))}:null},"hue-rotate":function(t){return t?function(n){return t.setAttribute("values",H(n))}:null},invert:function(t,n,e){return(t=Vt(e,n))?function(n){n=H(n)+" "+H(1-n),t.map((function(t){return t.setAttribute("tableValues",n)}))}:null},opacity:function(t,n,e){return(t=e.getElementById(n+"-A"))?function(n){return t.setAttribute("tableValues","0 "+H(n))}:null},saturate:function(t){return t?function(n){return t.setAttribute("values",H(n))}:null},sepia:function(t){return t?function(n){return t.setAttribute("values",X(function(t){return[.393+.607*(t=1-t),.769-.769*t,.189-.189*t,0,0,.349-.349*t,.686+.314*t,.168-.168*t,0,0,.272-.272*t,.534-.534*t,.131+.869*t,0,0,0,0,0,1,0]}(n)))}:null}};var Ct=["R","G","B"];function Vt(t,n){var e=Ct.map((function(e){return t.getElementById(n+"-"+e)||null}));return-1!==e.indexOf(null)?null:e}var Nt={fill:Pt,"fill-opacity":It,stroke:Pt,"stroke-opacity":It,"stroke-width":Bt,"stroke-dashoffset":{f:H,i:b},"stroke-dasharray":jt,opacity:It,transform:function(n,e,r,i){if(!(n=function(n,e){if(!n||"object"!==t(n))return null;var r=!1;for(var i in n)n.hasOwnProperty(i)&&(n[i]&&n[i].length?(n[i].forEach((function(t){t.e&&(t.e=e(t.e))})),r=!0):delete n[i]);return r?n:null}(n,i)))return null;var u=function(t,i,u){var o=arguments.length>3&&void 0!==arguments[3]?arguments[3]:null;return n[t]?r(i,n[t],u):e&&e[t]?e[t]:o};return e&&e.a&&n.o?function(t){var e=r(t,n.o,At);return Mt.recomposeSelf(e,u("r",t,b,0)+e.a,u("k",t,x),u("s",t,x),u("t",t,x)).toString()}:function(t){return Mt.recomposeSelf(u("o",t,kt,null),u("r",t,b,0),u("k",t,x),u("s",t,x),u("t",t,x)).toString()}},"#filter":function(t,n,e,r,i,u,o,a){if(!n.items||!t||!t.length)return null;var l=function(t,n){var e=(t=t.map((function(t){return t&&qt[t[0]]?(n.getElementById(t[1]),qt[t[0]](n.getElementById(t[1]),t[1],n)):null}))).length;return function(n){for(var r=0;r<e;r++)t[r]&&t[r](n[r].value)}}(n.items,a);return l?(t=function(t,n){return t.map((function(t){return t.e=n(t.e),t}))}(t,r),function(n){l(e(n,t,Tt))}):null},"#line":Et,points:{f:X,i:M},d:Ot,r:Bt,"#size":J,"#radius":Z,_:function(t,n){if(Array.isArray(t))for(var e=0;e<t.length;e++)this[t[e]]=n;else this[t]=n}};return function(t){!function(t,n){if("function"!=typeof n&&null!==n)throw new TypeError("Super expression must either be null or a function");t.prototype=Object.create(n&&n.prototype,{constructor:{value:t,writable:!0,configurable:!0}}),n&&u(t,n)}(o,t);var e=a(o);function o(){return n(this,o),e.apply(this,arguments)}return r(o,null,[{key:"build",value:function(t){var n=l(i(o),"build",this).call(this,t,Nt),e=n.el,r=n.options,u=n.player;return function(t,n,e){if("click"===e.start){return void n.addEventListener("click",(function(){switch(e.click){case"freeze":return!t._running&&t.reachedToEnd()&&(t.offset=0),t._running?t.pause():t.play();case"restart":return t.offset>0?t.restart():t.play();case"reverse":var n=!t._rollingBack&&t._running,r=t.reachedToEnd();return n||r&&1===t.fill?(t.pause(),r&&(t.offset=t.duration-1),t._rollback()):r?t.restart():t.play();case"none":default:return!t._running&&t.offset?t.restart():t.play()}}))}if("hover"===e.start)return n.addEventListener("mouseenter",(function(){return t.reachedToEnd()?t.restart():t.play()})),void n.addEventListener("mouseleave",(function(){switch(e.hover){case"freeze":return t.pause();case"reset":return t.stop();case"reverse":return t.pause(),t._rollback();case"none":default:return}}));if("scroll"===e.start)return void new Y(n,e.scroll||25,(function(n){n?t.reachedToEnd()?t.restart():t.play():t.pause()}));t.play()}(u,e,r),u}}]),o}(U)}));
__SVGATOR_PLAYER__.build({"root":"e1q71df7e07n1","animations":[{"duration":4000,"direction":1,"iterations":1,"fill":1,"alternate":false,"elements":{"e1q71df7e07n25":{"opacity":[{"t":0,"v":1},{"t":10,"v":0},{"t":3010,"v":0},{"t":3510,"v":1}]},"e1q71df7e07n38":{"transform":{"data":{"t":{"x":-1751.03759765625,"y":-1077.6636962890625}},"keys":{"o":[{"t":0,"v":{"x":1734.1673439462509,"y":1079.4891613490627,"type":"corner"}},{"t":100,"v":{"x":2645.8030105582507,"y":942.328748766396,"type":"corner"}},{"t":200,"v":{"x":2519.426035943012,"y":942.3287487647638,"type":"corner"}},{"t":390,"v":{"x":2422.1872684839586,"y":942.3287487707852,"type":"corner"}},{"t":550,"v":{"x":2375.478123482763,"y":894.1922736064507,"type":"corner"}},{"t":690,"v":{"x":2300.447863982714,"y":942.32874877072,"type":"corner"}},{"t":820,"v":{"x":2184.457398406684,"y":894.1922736095057,"type":"corner"}},{"t":1090,"v":{"x":2016.6347915166166,"y":904.9216281107189,"type":"corner"}},{"t":1460,"v":{"x":1921.336685213823,"y":833.151132265686,"type":"corner"}},{"t":1760,"v":{"x":1814.474918407023,"y":850.9672579325775,"type":"corner"}},{"t":2120,"v":{"x":1745.0242194839705,"y":617.7173256870585,"type":"corner"}},{"t":2190,"v":{"x":1745.6106954040379,"y":404.32026502812687,"type":"corner"}},{"t":3000,"v":{"x":1751.03759765625,"y":1077.6636962890625,"type":"corner"}},{"t":4000,"v":{"x":1751.03759765625,"y":1081.6636962890625,"type":"corner"}}]}}},"e1q71df7e07n47":{"transform":{"data":{"o":{"x":1680.8372786449997,"y":460.4757113099999,"type":"corner"},"t":{"x":-50.005462644999994,"y":-50.003255845}},"keys":{"s":[{"t":2120,"v":{"x":0,"y":0}},{"t":2190,"v":{"x":2,"y":2}},{"t":2500,"v":{"x":3,"y":3}}]}},"opacity":[{"t":2190,"v":1},{"t":2500,"v":0}]}}}],"options":{"start":"scroll","hover":"freeze","click":"freeze","scroll":69,"exportedIds":"unique","title":"ucb"},"animationSettings":{"duration":4000,"direction":1,"iterations":1,"fill":1,"alternate":false}})]]></script></svg>